<?xml version="1.0" encoding="UTF-8" standalone="no"?>
<svg
        id="Camada_1"
        x="0px"
        y="0px"
        viewBox="0 0 31 42.999999"
        xml:space="preserve"
        version="1.1"
        width="31"
        height="43"
        xmlns="http://www.w3.org/2000/svg">
    <defs
     id="defs8" />
    <style
            type="text/css"
            id="style1">	.st0{fill-rule:evenodd;clip-rule:evenodd;fill:#E25D9C;}	.st1{fill:#65BB96;}	.st2{fill:#273581;}</style>
    <g
            id="g8"
            transform="translate(-10.877193,-7.0175438)">	<path
            class="st0"
            d="m 22.9,31.6 c 3.1,1.2 4.1,4.1 4.3,5.8 0.1,0.9 -0.6,1.4 -0.6,1.4 L 11.1,49.6 c -0.4,-8 0.8,-10.1 1.3,-11.5 2.5,-6.2 7.5,-7.7 10.5,-6.5 z"
            id="path1"/>
        <path
                id="SVGID_12_"
                class="st1"
                d="M 19.1,26 C 10.8,20.6 10.8,15.8 11.2,7.1 L 41.5,28.3 29.1,37 C 29.3,33.2 26.5,31.2 25,30 24.1,29.3 22.9,28.6 21.9,27.8 20.4,26.9 19.1,26 19.1,26 Z"/>	</g></svg>
